<?xml version="1.0" encoding="utf-8"?>
<!-- Generator: Adobe Illustrator 16.0.0, SVG Export Plug-In . SVG Version: 6.00 Build 0)  -->
<!DOCTYPE svg PUBLIC "-//W3C//DTD SVG 1.1//EN" "http://www.w3.org/Graphics/SVG/1.1/DTD/svg11.dtd">
<svg version="1.1" id="Layer_1" xmlns="http://www.w3.org/2000/svg" xmlns:xlink="http://www.w3.org/1999/xlink" x="0px" y="0px"
	 width="252.956px" height="26.492px" viewBox="0 0 252.956 26.492" enable-background="new 0 0 252.956 26.492"
	 xml:space="preserve">
<g>
	<path fill="#FFFFFF" d="M0,0.36h16.522v4.571H5.832v6.803h8.459v4.392H5.832v9.971H0V0.36z"/>
</g>
<g>
	<path fill="#FFFFFF" d="M20.196,16.054V0.36h5.867v15.333c0,4.284,1.26,6.156,4.788,6.156c3.456,0,4.967-1.656,4.967-6.371V0.36
		h5.867v15.478c0,7.02-3.923,10.654-10.871,10.654C24.048,26.492,20.196,22.893,20.196,16.054z"/>
	<path fill="#FFFFFF" d="M45.396,18.033h5.579c0.252,2.305,1.224,4.212,5.04,4.212c2.556,0,4.248-1.403,4.248-3.419
		c0-2.053-1.08-2.772-4.859-3.348c-6.587-0.864-9.287-2.844-9.287-7.812C46.116,3.275,49.788,0,55.475,0
		c5.795,0,9.179,2.592,9.647,7.703h-5.363c-0.36-2.34-1.728-3.42-4.284-3.42s-3.852,1.188-3.852,2.916
		c0,1.835,0.828,2.7,4.788,3.275c6.227,0.792,9.431,2.484,9.431,7.811c0,4.572-3.743,8.207-9.827,8.207
		C48.96,26.492,45.72,23.182,45.396,18.033z"/>
	<path fill="#FFFFFF" d="M70.2,0.36h5.867v25.737H70.2V0.36z"/>
	<path fill="#FFFFFF" d="M80.424,13.39v-0.288C80.424,5.435,86.04,0,93.67,0c7.739,0,13.247,5.219,13.247,12.958v0.288
		c0,7.667-5.255,13.246-13.282,13.246C85.572,26.492,80.424,20.913,80.424,13.39z M100.833,13.318V13.03
		c0-5.003-2.664-8.423-7.163-8.423c-4.463,0-7.163,3.275-7.163,8.459v0.288c0,5.255,3.024,8.495,7.235,8.495
		C98.098,21.85,100.833,18.502,100.833,13.318z"/>
</g>
<g>
	<path fill="#FFFFFF" d="M111.132,0.36h6.767l9.791,16.955V0.36h5.183v25.737h-5.831L116.315,7.775v18.322h-5.184V0.36z"/>
</g>
<g>
	<path fill="#FFFFFF" d="M145.702,1.731h2.608l5.539,16.365h-1.968l-1.603-4.715h-6.752l-1.579,4.715h-1.877L145.702,1.731z
		 M144.077,11.802h5.676l-2.838-8.423L144.077,11.802z"/>
	<path fill="#FFFFFF" d="M155.608,14.412h1.854c0.138,1.418,0.893,2.312,2.815,2.312c1.808,0,2.609-0.618,2.609-1.9
		c0-1.259-0.939-1.671-2.793-2.014c-3.113-0.572-4.166-1.442-4.166-3.525c0-2.22,2.175-3.365,4.052-3.365
		c2.151,0,4.005,0.87,4.325,3.457h-1.83C162.2,8.072,161.468,7.5,159.958,7.5c-1.373,0-2.267,0.687-2.267,1.716
		c0,1.076,0.595,1.511,2.792,1.9c2.473,0.458,4.212,1.007,4.212,3.548c0,2.174-1.487,3.639-4.395,3.639
		C157.44,18.303,155.724,16.861,155.608,14.412z"/>
	<path fill="#FFFFFF" d="M166.593,14.412h1.854c0.138,1.418,0.893,2.312,2.815,2.312c1.809,0,2.609-0.618,2.609-1.9
		c0-1.259-0.938-1.671-2.792-2.014c-3.113-0.572-4.166-1.442-4.166-3.525c0-2.22,2.174-3.365,4.051-3.365
		c2.152,0,4.006,0.87,4.326,3.457h-1.831c-0.274-1.305-1.007-1.877-2.518-1.877c-1.373,0-2.266,0.687-2.266,1.716
		c0,1.076,0.595,1.511,2.792,1.9c2.473,0.458,4.211,1.007,4.211,3.548c0,2.174-1.487,3.639-4.395,3.639
		C168.424,18.303,166.707,16.861,166.593,14.412z"/>
	<path fill="#FFFFFF" d="M177.668,12.214v-0.183c0-3.593,2.495-6.111,5.882-6.111c3.389,0,5.883,2.495,5.883,6.088v0.183
		c0,3.616-2.494,6.111-5.905,6.111C180.117,18.303,177.668,15.717,177.668,12.214z M187.464,12.214v-0.16
		c0-2.77-1.533-4.555-3.914-4.555c-2.402,0-3.913,1.785-3.913,4.532v0.183c0,2.724,1.487,4.509,3.913,4.509
		C185.954,16.724,187.464,14.915,187.464,12.214z"/>
	<path fill="#FFFFFF" d="M191.489,12.237v-0.183c0-3.662,2.609-6.134,5.814-6.134c2.494,0,4.829,1.145,5.195,4.189h-1.877
		c-0.297-1.9-1.67-2.609-3.318-2.609c-2.175,0-3.846,1.739-3.846,4.555v0.183c0,2.93,1.603,4.486,3.914,4.486
		c1.693,0,3.228-0.984,3.434-2.93h1.762c-0.252,2.586-2.334,4.509-5.219,4.509C194.008,18.303,191.489,15.945,191.489,12.237z"/>
	<path fill="#FFFFFF" d="M205.128,2.373c0-0.687,0.572-1.259,1.26-1.259c0.687,0,1.258,0.572,1.258,1.259s-0.571,1.259-1.258,1.259
		C205.7,3.631,205.128,3.059,205.128,2.373z M205.472,6.126h1.9v11.971h-1.9V6.126z"/>
	<path fill="#FFFFFF" d="M210.276,14.778c0-2.77,2.93-3.708,5.997-3.708h1.717V10.2c0-1.899-0.732-2.701-2.563-2.701
		c-1.648,0-2.563,0.687-2.746,2.151h-1.9c0.252-2.724,2.426-3.731,4.738-3.731c2.289,0,4.371,0.938,4.371,4.28v7.896h-1.899v-1.511
		c-0.893,1.121-1.969,1.717-3.731,1.717C212.039,18.303,210.276,17.227,210.276,14.778z M217.99,13.908V12.42h-1.647
		c-2.404,0-4.166,0.595-4.166,2.357c0,1.236,0.595,2.014,2.266,2.014C216.456,16.792,217.99,15.762,217.99,13.908z"/>
	<path fill="#FFFFFF" d="M224.03,15.098v-7.37h-1.717V6.126h1.717V3.402h1.899v2.724h2.792v1.603h-2.792v7.187
		c0,1.167,0.526,1.739,1.487,1.739c0.596,0,1.053-0.092,1.465-0.252v1.603c-0.389,0.138-0.847,0.252-1.625,0.252
		C225.083,18.257,224.03,16.975,224.03,15.098z"/>
	<path fill="#FFFFFF" d="M230.849,12.237v-0.183c0-3.616,2.312-6.134,5.607-6.134c2.77,0,5.379,1.671,5.379,5.951v0.618h-9.018
		c0.092,2.724,1.396,4.234,3.846,4.234c1.854,0,2.93-0.687,3.181-2.083h1.899c-0.412,2.403-2.402,3.662-5.104,3.662
		C233.252,18.303,230.849,15.922,230.849,12.237z M239.89,10.956c-0.184-2.472-1.465-3.456-3.434-3.456
		c-1.945,0-3.25,1.328-3.57,3.456H239.89z"/>
	<path fill="#FFFFFF" d="M243.869,14.412h1.854c0.137,1.418,0.893,2.312,2.814,2.312c1.809,0,2.609-0.618,2.609-1.9
		c0-1.259-0.938-1.671-2.793-2.014c-3.112-0.572-4.165-1.442-4.165-3.525c0-2.22,2.175-3.365,4.052-3.365
		c2.15,0,4.005,0.87,4.325,3.457h-1.831c-0.274-1.305-1.007-1.877-2.518-1.877c-1.373,0-2.266,0.687-2.266,1.716
		c0,1.076,0.595,1.511,2.792,1.9c2.472,0.458,4.212,1.007,4.212,3.548c0,2.174-1.488,3.639-4.395,3.639
		C245.7,18.303,243.983,16.861,243.869,14.412z"/>
</g>
</svg>
