<?xml version="1.0" encoding="utf-8"?>
<!-- Generator: Adobe Illustrator 16.0.0, SVG Export Plug-In . SVG Version: 6.00 Build 0)  -->
<!DOCTYPE svg PUBLIC "-//W3C//DTD SVG 1.1//EN" "http://www.w3.org/Graphics/SVG/1.1/DTD/svg11.dtd">
<svg version="1.1" id="Layer_1" xmlns="http://www.w3.org/2000/svg" xmlns:xlink="http://www.w3.org/1999/xlink" x="0px" y="0px"
	 width="173.593px" height="150.342px" viewBox="0 0 173.593 150.342" enable-background="new 0 0 173.593 150.342"
	 xml:space="preserve">
<path opacity="0.6" fill="#FFFFFF" d="M95.229,26.464c4.616-2.837,10.047-4.476,15.854-4.476v-1.806
	c-17.754,0-32.201,14.443-32.201,32.197v19.729H65.556v3.43h13.328v48.252c-4.617,2.838-10.047,4.477-15.855,4.477v1.806
	c17.754,0,32.201-14.441,32.201-32.195V75.538h12.385v-3.43H95.229V26.464z"/>
<path opacity="0.6" fill="#FFFFFF" d="M113.708,23.707c-4.649,0-8.433,3.781-8.433,8.433c0,4.649,3.782,8.431,8.433,8.431
	c4.649,0,8.434-3.781,8.434-8.431C122.142,27.488,118.357,23.707,113.708,23.707"/>
<path opacity="0.6" fill="#FFFFFF" d="M68.833,118.116c0-4.648-3.777-8.432-8.428-8.432c-4.65,0-8.431,3.782-8.431,8.432
	c0,4.648,3.781,8.434,8.431,8.434C65.056,126.549,68.833,122.765,68.833,118.116"/>
<path opacity="0.6" fill="#FFFFFF" d="M130.199,150.338h-86.8L0,75.168L43.399,0h86.8l43.395,75.168L130.199,150.338z M44.75,148
	h84.099l42.048-72.832L128.849,2.336H44.75L2.696,75.168L44.75,148z"/>
<rect y="0.002" opacity="0.6" fill="none" width="173.593" height="150.34"/>
</svg>
