<?xml version="1.0" encoding="utf-8"?>
<!-- Generator: Adobe Illustrator 18.0.0, SVG Export Plug-In . SVG Version: 6.00 Build 0)  -->
<!DOCTYPE svg PUBLIC "-//W3C//DTD SVG 1.1//EN" "http://www.w3.org/Graphics/SVG/1.1/DTD/svg11.dtd">
<svg version="1.1" id="Layer_1" xmlns="http://www.w3.org/2000/svg" xmlns:xlink="http://www.w3.org/1999/xlink" x="0px" y="0px"
	 width="172.8px" height="149.9px" viewBox="0 0 172.8 149.9" enable-background="new 0 0 172.8 149.9" xml:space="preserve">
<g>
	<path fill="#D65787" d="M65.4,37.8h50.5v14H83.2v20.8H109v13.4H83.2v30.5H65.4V37.8z"/>
</g>
<path fill="#D65787" d="M129.1,149.9H43.7c-0.4,0-0.7-0.2-0.9-0.5l-42.7-74c-0.2-0.3-0.2-0.7,0-1l42.7-74C43,0.2,43.3,0,43.7,0h85.4
	c0.4,0,0.7,0.2,0.9,0.5l42.7,74c0.2,0.3,0.2,0.7,0,1l-42.7,74C129.8,149.7,129.5,149.9,129.1,149.9z M44.3,147.9h84.2l42.1-73
	L128.5,2H44.3L2.2,75L44.3,147.9z"/>
</svg>
