<?xml version="1.0" encoding="utf-8"?>
<!-- Generator: Adobe Illustrator 16.0.0, SVG Export Plug-In . SVG Version: 6.00 Build 0)  -->
<!DOCTYPE svg PUBLIC "-//W3C//DTD SVG 1.1//EN" "http://www.w3.org/Graphics/SVG/1.1/DTD/svg11.dtd">
<svg version="1.1" id="Layer_1" xmlns="http://www.w3.org/2000/svg" xmlns:xlink="http://www.w3.org/1999/xlink" x="0px" y="0px"
	 width="172px" height="196.001px" viewBox="-0.323 -7.001 172 196.001" enable-background="new -0.323 -7.001 172 196.001"
	 xml:space="preserve">
<g>
	<path fill="#FFFFFF" d="M28.365,139.323H50.28v6.063H36.1v9.023h11.219v5.825H36.1v13.225h-7.734V139.323z"/>
</g>
<path fill="#FFFFFF" d="M56.033,187.769H18.967c-0.155,0-0.298-0.083-0.376-0.217L0.058,155.451c-0.078-0.134-0.078-0.3,0-0.434
	l18.533-32.1c0.078-0.135,0.221-0.218,0.376-0.218h37.066c0.154,0,0.299,0.083,0.375,0.218l18.533,32.1
	c0.078,0.134,0.078,0.3,0,0.434l-18.533,32.101C56.332,187.686,56.188,187.769,56.033,187.769z M19.218,186.9h36.565l18.282-31.666
	l-18.282-31.666H19.218L0.935,155.234L19.218,186.9z"/>
<g>
	<path fill="#FFFFFF" d="M124.719,42.97h21.914v6.063h-14.18v9.023h11.219v5.825h-11.219v13.225h-7.734V42.97z"/>
</g>
<path fill="#FFFFFF" d="M152.387,91.415h-37.066c-0.155,0-0.299-0.083-0.376-0.217L96.412,59.098c-0.078-0.134-0.078-0.3,0-0.434
	l18.532-32.1c0.077-0.135,0.221-0.218,0.376-0.218h37.066c0.154,0,0.299,0.083,0.375,0.218l18.533,32.1
	c0.078,0.134,0.078,0.3,0,0.434l-18.533,32.101C152.686,91.332,152.541,91.415,152.387,91.415z M115.571,90.547h36.565
	l18.282-31.666l-18.282-31.666h-36.565L97.289,58.881L115.571,90.547z"/>
</svg>
