<?xml version="1.0" encoding="utf-8"?>
<!-- Generator: Adobe Illustrator 16.0.0, SVG Export Plug-In . SVG Version: 6.00 Build 0)  -->
<!DOCTYPE svg PUBLIC "-//W3C//DTD SVG 1.1//EN" "http://www.w3.org/Graphics/SVG/1.1/DTD/svg11.dtd">
<svg version="1.1" id="Layer_1" xmlns="http://www.w3.org/2000/svg" xmlns:xlink="http://www.w3.org/1999/xlink" x="0px" y="0px"
	 width="75px" height="65.068px" viewBox="0 0 75 65.068" enable-background="new 0 0 75 65.068" xml:space="preserve">
<g>
	<path d="M28.365,16.392h21.915v6.063h-14.18v9.023h11.22v5.825h-11.22v13.225h-7.734V16.392z"/>
</g>
<path d="M56.033,65.068H18.967c-0.155,0-0.298-0.083-0.376-0.217L0.058,32.751c-0.078-0.134-0.078-0.3,0-0.434l18.533-32.1
	C18.668,0.083,18.812,0,18.967,0h37.066c0.155,0,0.299,0.083,0.376,0.218l18.533,32.1c0.077,0.134,0.077,0.3,0,0.434L56.409,64.852
	C56.332,64.985,56.188,65.068,56.033,65.068z M19.217,64.2h36.565l18.283-31.666L55.782,0.868H19.217L0.935,32.534L19.217,64.2z"/>
</svg>
