<?xml version="1.0" encoding="utf-8"?>
<!-- Generator: Adobe Illustrator 16.0.0, SVG Export Plug-In . SVG Version: 6.00 Build 0)  -->
<!DOCTYPE svg PUBLIC "-//W3C//DTD SVG 1.1//EN" "http://www.w3.org/Graphics/SVG/1.1/DTD/svg11.dtd">
<svg version="1.1" id="Layer_1" xmlns="http://www.w3.org/2000/svg" xmlns:xlink="http://www.w3.org/1999/xlink" x="0px" y="0px"
	 width="80.731px" height="80.731px" viewBox="0 0 80.731 80.731" enable-background="new 0 0 80.731 80.731" xml:space="preserve">
<g>
	<g>
		<path fill="#FFFFFF" d="M1.475,8.546c23.57,23.57,47.141,47.141,70.711,70.711c4.564,4.563,11.635-2.507,7.071-7.071
			C55.687,48.615,32.116,25.045,8.546,1.475C3.982-3.089-3.089,3.982,1.475,8.546L1.475,8.546z"/>
	</g>
</g>
<g>
	<g>
		<path fill="#FFFFFF" d="M8.546,79.257c23.57-23.57,47.141-47.141,70.711-70.711c4.563-4.564-2.507-11.635-7.071-7.071
			c-23.57,23.57-47.141,47.141-70.711,70.711C-3.089,76.75,3.982,83.82,8.546,79.257L8.546,79.257z"/>
	</g>
</g>
</svg>
